<?xml version="1.0" encoding="utf-8"?>
<!-- Generator: Adobe Illustrator 28.2.0, SVG Export Plug-In . SVG Version: 6.00 Build 0)  -->
<svg version="1.1" id="Layer_1" xmlns="http://www.w3.org/2000/svg" xmlns:xlink="http://www.w3.org/1999/xlink" x="0px" y="0px"
	 viewBox="0 0 162 111" style="enable-background:new 0 0 162 111;" xml:space="preserve">
<style type="text/css">
	.st0{fill:#120161;}
	.st1{fill:#CE0000;}
	.st2{fill:#444444;}
</style>
<g>
	<path class="st0" d="M9.3,43.6c2,0,3.7,0.7,5,2c1.4,1.3,2,3,2,5c0,2-0.7,3.7-2,5c-1.4,1.3-3,2-5,2H6.6v5.9H1.6V43.6H9.3z M9.3,52.6
		c0.6,0,1-0.2,1.4-0.6s0.6-0.9,0.6-1.5c0-0.6-0.2-1.1-0.6-1.5c-0.4-0.4-0.9-0.6-1.4-0.6H6.6v4.2H9.3z"/>
	<path class="st0" d="M28.7,63.4L25.2,57h-1.8v6.4h-5.1V43.6h7.9c2,0,3.7,0.6,5.1,1.9c1.4,1.3,2.1,2.9,2.1,4.9
		c0,1.2-0.3,2.3-0.9,3.3c-0.6,1-1.4,1.8-2.5,2.4l4.1,7.3H28.7z M23.4,48.2v4.4h2.8c0.6,0,1.1-0.2,1.5-0.6c0.4-0.4,0.6-1,0.6-1.6
		c0-0.7-0.2-1.2-0.6-1.6c-0.4-0.4-0.9-0.6-1.5-0.6H23.4z"/>
	<path class="st0" d="M52.6,60.8c-2,2-4.5,3-7.4,3c-2.9,0-5.4-1-7.4-3c-2-2-3-4.4-3-7.3c0-2.9,1-5.4,3-7.3c2-2,4.5-3,7.4-3
		c2.9,0,5.4,1,7.4,3c2,2,3,4.4,3,7.3C55.6,56.4,54.6,58.8,52.6,60.8z M41.4,57.3c1,1,2.3,1.5,3.8,1.5c1.5,0,2.8-0.5,3.8-1.5
		c1-1,1.5-2.3,1.5-3.9c0-1.6-0.5-2.9-1.5-3.9s-2.3-1.5-3.8-1.5c-1.5,0-2.8,0.5-3.8,1.5c-1,1-1.5,2.3-1.5,3.9
		C39.9,55,40.4,56.3,41.4,57.3z"/>
	<path class="st0" d="M65.7,43.6c2,0,3.7,0.7,5,2c1.4,1.3,2,3,2,5c0,2-0.7,3.7-2,5c-1.4,1.3-3,2-5,2H63v5.9H58V43.6H65.7z
		 M65.7,52.6c0.6,0,1-0.2,1.4-0.6s0.6-0.9,0.6-1.5c0-0.6-0.2-1.1-0.6-1.5c-0.4-0.4-0.9-0.6-1.4-0.6H63v4.2H65.7z"/>
	<path class="st0" d="M79.8,58.6h7.7v4.8H74.7V43.6h12.6v4.7h-7.5V51h6.8v4.7h-6.8V58.6z"/>
	<path class="st0" d="M100.2,63.4L96.8,57h-1.8v6.4h-5.1V43.6h7.9c2,0,3.7,0.6,5.1,1.9c1.4,1.3,2.1,2.9,2.1,4.9
		c0,1.2-0.3,2.3-0.9,3.3c-0.6,1-1.4,1.8-2.5,2.4l4.1,7.3H100.2z M94.9,48.2v4.4h2.8c0.6,0,1.1-0.2,1.5-0.6c0.4-0.4,0.6-1,0.6-1.6
		c0-0.7-0.2-1.2-0.6-1.6c-0.4-0.4-0.9-0.6-1.5-0.6H94.9z"/>
	<path class="st0" d="M120.6,43.6v4.9h-4.9v14.9h-5.1V48.5h-4.9v-4.9H120.6z"/>
	<path class="st0" d="M122.4,43.6h5.1v19.8h-5.1V43.6z"/>
	<path class="st0" d="M135.7,58.6h7.7v4.8h-12.7V43.6h12.6v4.7h-7.5V51h6.8v4.7h-6.8V58.6z"/>
	<path class="st0" d="M152.8,63.8c-2.1,0-3.8-0.4-5.2-1.3c-1.4-0.9-2.3-2.1-2.9-3.6l4.3-2.5c0.7,1.8,2,2.6,3.9,2.6
		c1.5,0,2.3-0.4,2.3-1.3c0-0.6-0.4-1-1.3-1.4c-0.4-0.2-1.2-0.4-2.5-0.8c-1.8-0.5-3.2-1.3-4.3-2.2c-1.1-1-1.6-2.3-1.6-4
		c0-1.8,0.7-3.3,2-4.4c1.3-1.1,2.9-1.7,4.9-1.7c1.7,0,3.1,0.4,4.4,1.2c1.3,0.8,2.3,1.9,2.9,3.4l-4.2,2.5c-0.6-1.5-1.7-2.2-3.1-2.2
		c-0.6,0-1.1,0.1-1.4,0.4c-0.3,0.2-0.5,0.6-0.5,0.9c0,0.4,0.2,0.8,0.7,1.1c0.5,0.3,1.4,0.7,2.7,1.1c0.9,0.3,1.7,0.6,2.3,0.8
		s1.2,0.6,1.9,1s1.2,1.1,1.6,1.8c0.3,0.7,0.5,1.6,0.5,2.6c0,1.9-0.7,3.5-2.1,4.6C156.9,63.3,155.1,63.8,152.8,63.8z"/>
</g>
<g>
	<path class="st1" d="M39.8,79.2c-1.1,0-2.1,0.4-2.9,1.2c-0.8,0.8-1.2,1.7-1.2,2.9c0,1.2,0.4,2.2,1.2,2.9c0.8,0.8,1.7,1.1,2.9,1.1
		s2.1-0.4,2.9-1.1c0.8-0.8,1.2-1.7,1.2-2.9c0-1.2-0.4-2.2-1.2-2.9C41.9,79.6,40.9,79.2,39.8,79.2z"/>
	<path class="st1" d="M59.7,79.4h-2.5V83h2.5c0.5,0,0.9-0.2,1.2-0.5c0.3-0.4,0.5-0.8,0.5-1.3c0-0.5-0.2-0.9-0.5-1.3
		C60.5,79.5,60.1,79.4,59.7,79.4z"/>
	<polygon class="st1" points="103.5,85 106.9,85 105.2,79.9 	"/>
	<path class="st1" d="M1.5,68.5v28.1h158.9V68.5H1.5z M25.4,79.4h-5v2.9h4.8v2.3h-4.8v4.8H18V77.1h7.4V79.4z M44.4,87.9
		c-1.3,1.2-2.8,1.9-4.6,1.9c-1.8,0-3.3-0.6-4.6-1.9c-1.2-1.2-1.9-2.8-1.9-4.6c0-1.8,0.6-3.3,1.9-4.6c1.2-1.2,2.8-1.9,4.6-1.9
		c1.8,0,3.3,0.6,4.6,1.9c1.3,1.2,1.9,2.8,1.9,4.6C46.2,85.1,45.6,86.6,44.4,87.9z M61.5,89.5L59,85.2h-1.9v4.3h-2.4V77.1h5
		c1.1,0,2.1,0.4,2.9,1.2c0.8,0.8,1.2,1.8,1.2,2.9c0,0.8-0.2,1.5-0.7,2.1c-0.4,0.7-1,1.1-1.7,1.5l2.7,4.7H61.5z M91,88.7
		c-0.8,0.7-1.9,1-3.3,1c-1.2,0-2.3-0.3-3.1-0.8c-0.8-0.5-1.4-1.3-1.8-2.2l2.1-1.2c0.5,1.3,1.4,1.9,2.9,1.9c0.7,0,1.2-0.1,1.5-0.4
		c0.3-0.2,0.5-0.6,0.5-0.9c0-0.4-0.2-0.8-0.6-1c-0.4-0.2-1.1-0.5-2.1-0.8c-0.6-0.2-1-0.3-1.4-0.5c-0.4-0.2-0.8-0.4-1.2-0.7
		c-0.4-0.3-0.7-0.6-0.9-1.1c-0.2-0.4-0.3-0.9-0.3-1.5c0-1.1,0.4-2,1.2-2.7c0.8-0.7,1.8-1,2.9-1c1,0,1.9,0.2,2.7,0.7
		c0.8,0.5,1.4,1.2,1.8,2l-2.1,1.2c-0.5-1.1-1.3-1.6-2.4-1.6c-0.5,0-0.9,0.1-1.2,0.3c-0.3,0.2-0.4,0.5-0.4,0.9c0,0.4,0.2,0.7,0.5,0.9
		c0.3,0.2,0.9,0.5,1.9,0.8c0.4,0.1,0.7,0.2,0.9,0.3c0.2,0.1,0.5,0.2,0.8,0.3c0.3,0.1,0.6,0.3,0.8,0.4s0.4,0.3,0.6,0.5
		c0.2,0.2,0.4,0.4,0.5,0.6c0.1,0.2,0.2,0.5,0.3,0.8c0.1,0.3,0.1,0.6,0.1,1C92.2,87.1,91.8,88.1,91,88.7z M108.5,89.5l-0.8-2.2h-5.1
		l-0.7,2.2h-2.6l4.3-12.4h3l4.4,12.4H108.5z M126.2,89.5H119V77.1h2.4v10.1h4.7V89.5z M142,89.5h-7.7V77.1h7.6v2.3h-5.1v2.6h4.7v2.3
		h-4.7v2.8h5.2V89.5z"/>
</g>
<g>
	<path class="st2" d="M6.8,102.3h0.8v6.3H6.8v-2.8h-3v2.8H2.9v-6.3h0.8v2.7h3V102.3z"/>
	<path class="st2" d="M12.7,108c-0.5,0.5-1,0.7-1.7,0.7c-0.7,0-1.2-0.2-1.7-0.7c-0.5-0.5-0.7-1-0.7-1.7c0-0.7,0.2-1.2,0.7-1.7
		c0.5-0.5,1-0.7,1.7-0.7c0.7,0,1.2,0.2,1.7,0.7s0.7,1,0.7,1.7C13.3,107,13.1,107.5,12.7,108z M11,107.9c0.4,0,0.8-0.2,1.1-0.5
		s0.5-0.7,0.5-1.1c0-0.5-0.2-0.8-0.5-1.1c-0.3-0.3-0.7-0.5-1.1-0.5c-0.4,0-0.8,0.2-1.1,0.5c-0.3,0.3-0.5,0.7-0.5,1.1
		c0,0.5,0.2,0.8,0.5,1.1S10.5,107.9,11,107.9z"/>
	<path class="st2" d="M19.1,104c0.5,0,0.9,0.2,1.2,0.5c0.3,0.3,0.5,0.8,0.5,1.3v2.8H20v-2.8c0-0.3-0.1-0.6-0.3-0.8s-0.4-0.3-0.7-0.3
		c-0.3,0-0.6,0.1-0.8,0.3c-0.2,0.2-0.3,0.6-0.3,1v2.5h-0.8v-2.8c0-0.3-0.1-0.6-0.3-0.8c-0.2-0.2-0.4-0.3-0.7-0.3
		c-0.3,0-0.6,0.1-0.8,0.3c-0.2,0.2-0.3,0.6-0.3,1v2.5h-0.8v-4.5H15v0.6c0.3-0.5,0.7-0.7,1.3-0.7c0.6,0,1,0.3,1.3,0.8
		C18,104.2,18.5,104,19.1,104z"/>
	<path class="st2" d="M22.4,106.7c0.1,0.4,0.3,0.7,0.6,0.9c0.3,0.2,0.6,0.3,1.1,0.3c0.6,0,1-0.2,1.3-0.7l0.7,0.4c-0.4,0.7-1.1,1-2,1
		c-0.7,0-1.3-0.2-1.7-0.7c-0.4-0.4-0.7-1-0.7-1.7c0-0.7,0.2-1.2,0.7-1.7c0.4-0.4,1-0.7,1.7-0.7c0.7,0,1.2,0.2,1.6,0.7s0.6,1,0.6,1.7
		c0,0.1,0,0.2,0,0.3H22.4z M24,104.7c-0.4,0-0.8,0.1-1,0.4c-0.3,0.2-0.4,0.6-0.5,0.9h3c-0.1-0.4-0.2-0.7-0.5-1
		C24.6,104.8,24.3,104.7,24,104.7z"/>
	<path class="st2" d="M34.6,104.1h0.7l-1.3,4.5h-0.8l-1.1-3.4l-1.1,3.4h-0.8l-1.3-4.5h0.8l1,3.4l1.1-3.4h0.8l1.1,3.4L34.6,104.1z"/>
	<path class="st2" d="M36.6,103.3c-0.1,0-0.3,0-0.4-0.2c-0.1-0.1-0.2-0.2-0.2-0.4c0-0.1,0.1-0.3,0.2-0.4c0.1-0.1,0.2-0.2,0.4-0.2
		c0.1,0,0.3,0.1,0.4,0.2s0.2,0.2,0.2,0.4c0,0.1-0.1,0.3-0.2,0.4C36.9,103.2,36.8,103.3,36.6,103.3z M36.2,108.6v-4.5H37v4.5H36.2z"
		/>
	<path class="st2" d="M40.6,104.8h-1.2v2.4c0,0.2,0,0.4,0.1,0.5c0.1,0.1,0.2,0.1,0.4,0.1s0.4,0,0.7,0v0.7c-0.7,0.1-1.2,0-1.5-0.2
		c-0.3-0.2-0.5-0.6-0.5-1.1v-2.4h-0.9v-0.8h0.9v-1l0.8-0.2v1.3h1.2V104.8z"/>
	<path class="st2" d="M43.8,104c0.5,0,0.9,0.2,1.3,0.5c0.3,0.3,0.5,0.8,0.5,1.3v2.8h-0.8v-2.7c0-0.4-0.1-0.6-0.3-0.8
		s-0.5-0.3-0.8-0.3c-0.4,0-0.7,0.1-0.9,0.4s-0.4,0.6-0.4,1.1v2.4h-0.8v-6.3h0.8v2.4C42.7,104.2,43.1,104,43.8,104z"/>
	<path class="st2" d="M52.6,104.1h0.8v4.5h-0.8v-0.8c-0.4,0.6-1,0.9-1.7,0.9c-0.6,0-1.2-0.2-1.6-0.7c-0.4-0.5-0.7-1-0.7-1.7
		c0-0.7,0.2-1.2,0.7-1.7s1-0.7,1.6-0.7c0.7,0,1.3,0.3,1.7,0.9V104.1z M51,107.9c0.5,0,0.8-0.2,1.1-0.5s0.5-0.7,0.5-1.1
		c0-0.5-0.2-0.8-0.5-1.1s-0.7-0.5-1.1-0.5c-0.4,0-0.8,0.2-1.1,0.5s-0.5,0.7-0.5,1.1c0,0.5,0.2,0.8,0.5,1.1S50.5,107.9,51,107.9z"/>
	<path class="st2" d="M59,104c0.5,0,0.9,0.2,1.3,0.5c0.3,0.3,0.5,0.8,0.5,1.3v2.8H60v-2.7c0-0.4-0.1-0.6-0.3-0.8s-0.5-0.3-0.8-0.3
		c-0.4,0-0.7,0.1-0.9,0.4s-0.4,0.6-0.4,1.1v2.4h-0.8v-6.3h0.8v2.4C57.9,104.2,58.3,104,59,104z"/>
	<path class="st2" d="M62.4,106.7c0.1,0.4,0.3,0.7,0.6,0.9c0.3,0.2,0.6,0.3,1.1,0.3c0.6,0,1-0.2,1.3-0.7l0.7,0.4c-0.4,0.7-1.1,1-2,1
		c-0.7,0-1.3-0.2-1.7-0.7c-0.4-0.4-0.7-1-0.7-1.7c0-0.7,0.2-1.2,0.7-1.7c0.4-0.4,1-0.7,1.7-0.7c0.7,0,1.2,0.2,1.6,0.7s0.6,1,0.6,1.7
		c0,0.1,0,0.2,0,0.3H62.4z M63.9,104.7c-0.4,0-0.8,0.1-1,0.4c-0.3,0.2-0.4,0.6-0.5,0.9h3c-0.1-0.4-0.2-0.7-0.5-1
		C64.6,104.8,64.3,104.7,63.9,104.7z"/>
	<path class="st2" d="M70.7,104.1h0.8v4.5h-0.8v-0.8c-0.4,0.6-1,0.9-1.7,0.9c-0.6,0-1.2-0.2-1.6-0.7c-0.4-0.5-0.7-1-0.7-1.7
		c0-0.7,0.2-1.2,0.7-1.7s1-0.7,1.6-0.7c0.7,0,1.3,0.3,1.7,0.9V104.1z M69.1,107.9c0.5,0,0.8-0.2,1.1-0.5s0.5-0.7,0.5-1.1
		c0-0.5-0.2-0.8-0.5-1.1s-0.7-0.5-1.1-0.5c-0.4,0-0.8,0.2-1.1,0.5s-0.5,0.7-0.5,1.1c0,0.5,0.2,0.8,0.5,1.1S68.7,107.9,69.1,107.9z"
		/>
	<path class="st2" d="M73.5,104.8c0.3-0.6,0.7-0.8,1.4-0.8v0.8c-0.4,0-0.7,0.1-1,0.3c-0.3,0.2-0.4,0.6-0.4,1.1v2.4h-0.8v-4.5h0.8
		V104.8z"/>
	<path class="st2" d="M78.2,104.8H77v2.4c0,0.2,0,0.4,0.1,0.5c0.1,0.1,0.2,0.1,0.4,0.1s0.4,0,0.7,0v0.7c-0.7,0.1-1.2,0-1.5-0.2
		c-0.3-0.2-0.5-0.6-0.5-1.1v-2.4h-0.9v-0.8h0.9v-1l0.8-0.2v1.3h1.2V104.8z"/>
	<path class="st2" d="M80.3,107.6l-0.6,2.2H79l0.4-2.2H80.3z"/>
	<path class="st2" d="M84.3,105.3c0,0.2,0.1,0.3,0.3,0.4c0.2,0.1,0.4,0.2,0.6,0.3c0.2,0.1,0.5,0.1,0.7,0.2c0.2,0.1,0.5,0.2,0.6,0.4
		c0.2,0.2,0.3,0.5,0.3,0.8c0,0.4-0.2,0.7-0.5,1c-0.3,0.2-0.7,0.4-1.2,0.4c-0.4,0-0.8-0.1-1.1-0.3c-0.3-0.2-0.5-0.4-0.7-0.8l0.7-0.4
		c0.1,0.2,0.2,0.4,0.4,0.5c0.2,0.1,0.4,0.2,0.7,0.2c0.3,0,0.5,0,0.6-0.1s0.3-0.3,0.3-0.5c0-0.2-0.1-0.3-0.3-0.4
		c-0.2-0.1-0.4-0.2-0.6-0.3s-0.5-0.1-0.7-0.2s-0.5-0.2-0.6-0.4c-0.2-0.2-0.3-0.4-0.3-0.7c0-0.4,0.2-0.7,0.5-1
		c0.3-0.3,0.7-0.4,1.1-0.4c0.4,0,0.7,0.1,1,0.2c0.3,0.2,0.5,0.4,0.6,0.7l-0.7,0.4c-0.2-0.4-0.5-0.6-1-0.6c-0.2,0-0.4,0.1-0.6,0.2
		S84.3,105.1,84.3,105.3z"/>
	<path class="st2" d="M88.2,106.7c0.1,0.4,0.3,0.7,0.6,0.9c0.3,0.2,0.6,0.3,1.1,0.3c0.6,0,1-0.2,1.3-0.7l0.7,0.4c-0.4,0.7-1.1,1-2,1
		c-0.7,0-1.3-0.2-1.7-0.7c-0.4-0.4-0.7-1-0.7-1.7c0-0.7,0.2-1.2,0.7-1.7c0.4-0.4,1-0.7,1.7-0.7c0.7,0,1.2,0.2,1.6,0.7s0.6,1,0.6,1.7
		c0,0.1,0,0.2,0,0.3H88.2z M89.7,104.7c-0.4,0-0.8,0.1-1,0.4c-0.3,0.2-0.4,0.6-0.5,0.9h3c-0.1-0.4-0.2-0.7-0.5-1
		C90.4,104.8,90.1,104.7,89.7,104.7z"/>
	<path class="st2" d="M93.6,104.8c0.3-0.6,0.7-0.8,1.4-0.8v0.8c-0.4,0-0.7,0.1-1,0.3c-0.3,0.2-0.4,0.6-0.4,1.1v2.4h-0.8v-4.5h0.8
		V104.8z"/>
	<path class="st2" d="M98.9,104.1h0.8l-1.8,4.5H97l-1.8-4.5h0.8l1.4,3.6L98.9,104.1z"/>
	<path class="st2" d="M100.8,103.3c-0.1,0-0.3,0-0.4-0.2c-0.1-0.1-0.2-0.2-0.2-0.4c0-0.1,0.1-0.3,0.2-0.4s0.2-0.2,0.4-0.2
		c0.1,0,0.3,0.1,0.4,0.2s0.2,0.2,0.2,0.4c0,0.1-0.1,0.3-0.2,0.4C101.1,103.2,101,103.3,100.8,103.3z M100.4,108.6v-4.5h0.8v4.5
		H100.4z"/>
	<path class="st2" d="M104.5,108.7c-0.7,0-1.2-0.2-1.7-0.7c-0.4-0.5-0.7-1-0.7-1.7s0.2-1.2,0.7-1.7c0.4-0.5,1-0.7,1.7-0.7
		c0.4,0,0.8,0.1,1.2,0.3s0.6,0.5,0.8,0.9l-0.7,0.4c-0.1-0.2-0.3-0.4-0.5-0.6c-0.2-0.1-0.5-0.2-0.8-0.2c-0.4,0-0.8,0.2-1.1,0.5
		c-0.3,0.3-0.5,0.7-0.5,1.1c0,0.4,0.2,0.8,0.5,1.1c0.3,0.3,0.7,0.5,1.1,0.5c0.3,0,0.6-0.1,0.8-0.2c0.2-0.1,0.4-0.3,0.5-0.6l0.7,0.4
		c-0.2,0.4-0.5,0.6-0.8,0.8S104.9,108.7,104.5,108.7z"/>
	<path class="st2" d="M107.8,106.7c0.1,0.4,0.3,0.7,0.6,0.9c0.3,0.2,0.6,0.3,1.1,0.3c0.6,0,1-0.2,1.3-0.7l0.7,0.4
		c-0.4,0.7-1.1,1-2,1c-0.7,0-1.3-0.2-1.7-0.7c-0.4-0.4-0.7-1-0.7-1.7c0-0.7,0.2-1.2,0.7-1.7c0.4-0.4,1-0.7,1.7-0.7
		c0.7,0,1.2,0.2,1.6,0.7s0.6,1,0.6,1.7c0,0.1,0,0.2,0,0.3H107.8z M109.3,104.7c-0.4,0-0.8,0.1-1,0.4c-0.3,0.2-0.4,0.6-0.5,0.9h3
		c-0.1-0.4-0.2-0.7-0.5-1C110,104.8,109.7,104.7,109.3,104.7z"/>
	<path class="st2" d="M120,104.1h0.7l-1.3,4.5h-0.8l-1.1-3.4l-1.1,3.4h-0.8l-1.3-4.5h0.8l1,3.4l1.1-3.4h0.8l1.1,3.4L120,104.1z"/>
	<path class="st2" d="M122,103.3c-0.1,0-0.3,0-0.4-0.2c-0.1-0.1-0.2-0.2-0.2-0.4c0-0.1,0.1-0.3,0.2-0.4s0.2-0.2,0.4-0.2
		c0.1,0,0.3,0.1,0.4,0.2s0.2,0.2,0.2,0.4c0,0.1-0.1,0.3-0.2,0.4C122.2,103.2,122.1,103.3,122,103.3z M121.6,108.6v-4.5h0.8v4.5
		H121.6z"/>
	<path class="st2" d="M126,104.8h-1.2v2.4c0,0.2,0,0.4,0.1,0.5c0.1,0.1,0.2,0.1,0.4,0.1c0.2,0,0.4,0,0.7,0v0.7
		c-0.7,0.1-1.2,0-1.5-0.2c-0.3-0.2-0.5-0.6-0.5-1.1v-2.4h-0.9v-0.8h0.9v-1l0.8-0.2v1.3h1.2V104.8z"/>
	<path class="st2" d="M129.1,104c0.5,0,0.9,0.2,1.3,0.5c0.3,0.3,0.5,0.8,0.5,1.3v2.8h-0.8v-2.7c0-0.4-0.1-0.6-0.3-0.8
		c-0.2-0.2-0.5-0.3-0.8-0.3c-0.4,0-0.7,0.1-0.9,0.4c-0.2,0.2-0.4,0.6-0.4,1.1v2.4h-0.8v-6.3h0.8v2.4C128,104.2,128.5,104,129.1,104z
		"/>
	<path class="st2" d="M137.9,104.1h0.8v4.5h-0.8v-0.8c-0.4,0.6-1,0.9-1.7,0.9c-0.6,0-1.2-0.2-1.6-0.7c-0.4-0.5-0.7-1-0.7-1.7
		c0-0.7,0.2-1.2,0.7-1.7c0.4-0.5,1-0.7,1.6-0.7c0.7,0,1.3,0.3,1.7,0.9V104.1z M136.3,107.9c0.5,0,0.8-0.2,1.1-0.5
		c0.3-0.3,0.5-0.7,0.5-1.1c0-0.5-0.2-0.8-0.5-1.1c-0.3-0.3-0.7-0.5-1.1-0.5c-0.4,0-0.8,0.2-1.1,0.5c-0.3,0.3-0.5,0.7-0.5,1.1
		c0,0.5,0.2,0.8,0.5,1.1C135.5,107.8,135.9,107.9,136.3,107.9z"/>
	<path class="st2" d="M142.8,105.3c0,0.2,0.1,0.3,0.3,0.4c0.2,0.1,0.4,0.2,0.6,0.3c0.2,0.1,0.5,0.1,0.7,0.2c0.2,0.1,0.5,0.2,0.6,0.4
		c0.2,0.2,0.3,0.5,0.3,0.8c0,0.4-0.2,0.7-0.5,1c-0.3,0.2-0.7,0.4-1.2,0.4c-0.4,0-0.8-0.1-1.1-0.3c-0.3-0.2-0.5-0.4-0.7-0.8l0.7-0.4
		c0.1,0.2,0.2,0.4,0.4,0.5c0.2,0.1,0.4,0.2,0.7,0.2c0.3,0,0.5,0,0.6-0.1s0.3-0.3,0.3-0.5c0-0.2-0.1-0.3-0.3-0.4
		c-0.2-0.1-0.4-0.2-0.6-0.3s-0.5-0.1-0.7-0.2s-0.5-0.2-0.6-0.4c-0.2-0.2-0.3-0.4-0.3-0.7c0-0.4,0.2-0.7,0.5-1
		c0.3-0.3,0.7-0.4,1.1-0.4c0.4,0,0.7,0.1,1,0.2c0.3,0.2,0.5,0.4,0.6,0.7l-0.7,0.4c-0.2-0.4-0.5-0.6-1-0.6c-0.2,0-0.4,0.1-0.6,0.2
		S142.8,105.1,142.8,105.3z"/>
	<path class="st2" d="M149.9,108c-0.5,0.5-1,0.7-1.7,0.7s-1.2-0.2-1.7-0.7c-0.5-0.5-0.7-1-0.7-1.7c0-0.7,0.2-1.2,0.7-1.7
		c0.5-0.5,1-0.7,1.7-0.7s1.2,0.2,1.7,0.7s0.7,1,0.7,1.7C150.6,107,150.3,107.5,149.9,108z M148.2,107.9c0.4,0,0.8-0.2,1.1-0.5
		s0.5-0.7,0.5-1.1c0-0.5-0.2-0.8-0.5-1.1c-0.3-0.3-0.7-0.5-1.1-0.5c-0.4,0-0.8,0.2-1.1,0.5c-0.3,0.3-0.5,0.7-0.5,1.1
		c0,0.5,0.2,0.8,0.5,1.1C147.4,107.8,147.8,107.9,148.2,107.9z"/>
	<path class="st2" d="M154.6,104.1h0.8v4.5h-0.8v-0.6c-0.3,0.5-0.8,0.8-1.5,0.8c-0.5,0-0.9-0.2-1.3-0.5c-0.3-0.3-0.5-0.8-0.5-1.3
		v-2.8h0.8v2.7c0,0.4,0.1,0.6,0.3,0.8c0.2,0.2,0.5,0.3,0.8,0.3c0.4,0,0.7-0.1,0.9-0.4c0.2-0.2,0.4-0.6,0.4-1.1V104.1z"/>
	<path class="st2" d="M156.5,108.6V102h0.8v6.5H156.5z"/>
	<path class="st2" d="M159,108.7c-0.2,0-0.3-0.1-0.4-0.2s-0.2-0.3-0.2-0.4s0.1-0.3,0.2-0.4s0.3-0.2,0.4-0.2c0.2,0,0.3,0.1,0.4,0.2
		c0.1,0.1,0.2,0.3,0.2,0.4s-0.1,0.3-0.2,0.4C159.3,108.6,159.2,108.7,159,108.7z"/>
</g>
<polygon class="st1" points="127.3,32.8 105.7,32.8 116.6,23.5 116.6,23.5 "/>
<polygon class="st1" points="58.7,33.8 44.1,33.8 51.4,27.4 51.4,27.4 "/>
<polygon class="st0" points="143.9,25.3 143.9,13.1 134.3,5.7 134.3,17.2 116.5,2 95.1,20.3 79,34 67.9,24.5 51.4,10.5 35,24.5 
	18.5,38.6 30.2,38.6 35,34.5 51.4,20.4 67.9,34.5 72.7,38.6 73.7,38.6 84.3,38.6 88.8,38.6 95.1,33.2 116.5,14.9 138,33.2 
	144.2,38.6 159.4,38.6 "/>
</svg>
